<?xml version="1.0" encoding="UTF-8"?>
<svg width="97px" height="41px" viewBox="0 0 97 41" version="1.1" xmlns="http://www.w3.org/2000/svg" xmlns:xlink="http://www.w3.org/1999/xlink">
    <!-- Generator: Sketch 46.2 (44496) - http://www.bohemiancoding.com/sketch -->
    <title>right-arrow</title>
    <desc>Created with Sketch.</desc>
    <defs></defs>
    <g id="Page-1" stroke="none" stroke-width="1" fill="none" fill-rule="evenodd">
        <g id="Desktop-Copy-5" transform="translate(-213.000000, -568.000000)" fill-rule="nonzero" fill="#34A9DE">
            <g id="right-arrow" transform="translate(261.668750, 587.662992) rotate(178.000000) translate(-261.668750, -587.662992) translate(213.668750, 567.662992)">
                <path d="M95.345654,34.0363935 L84.2817335,0.663191691 C84.0111809,-0.152230985 83.4168493,-0.225929066 82.9543079,0.498853441 L76.4867218,10.6273417 C76.0240105,11.3521242 75.6313605,11.9327295 75.6094238,11.9239196 C75.5964998,11.918837 75.5834058,11.913585 75.5699717,11.9083329 C73.8095939,11.1659306 71.9228674,10.6263251 69.8501041,9.96270357 C68.8265614,9.61217178 67.7139114,9.37006935 66.5859568,9.07714065 C66.0213843,8.93601306 65.4469488,8.79251358 64.8635005,8.64681163 C64.5727117,8.57480775 64.2797121,8.5021262 63.984672,8.4291058 C63.6848704,8.37167212 63.3831982,8.31406903 63.0793154,8.25595767 C61.8695657,8.02995022 60.626826,7.79716593 59.3560278,7.55980729 C58.0806381,7.3642956 56.7698776,7.22028785 55.4502744,7.04917277 C54.1357728,6.85213629 52.7745068,6.80961165 51.4157917,6.70965333 C50.7367742,6.66662043 50.0540156,6.62307926 49.3676859,6.57902984 C48.6796557,6.57377779 47.9882244,6.56869516 47.2935622,6.56293485 C45.9078088,6.55971586 44.5227356,6.51888542 43.1271192,6.62358753 C42.4329671,6.66035186 41.7372845,6.69728561 41.0404116,6.7345582 C40.3462595,6.76776469 39.6531277,6.80605381 38.9605061,6.8968634 C37.5762832,7.05764381 36.1990324,7.18725078 34.8370863,7.37903521 C33.4841529,7.61131123 32.1370013,7.84240131 30.7995426,8.07162775 C29.4746678,8.34998625 28.1722399,8.67036113 26.8907283,8.96379808 C26.248102,9.10018189 25.6183996,9.28213991 24.9954993,9.46985824 C24.3736193,9.65232452 23.7570109,9.83377428 23.1444837,10.0136993 C22.5362079,10.2019258 21.9269117,10.353727 21.338872,10.5668584 C20.7513425,10.7767709 20.1697648,10.9846503 19.5941389,11.1904967 C18.4478187,11.6067637 17.3227549,11.9784732 16.2653719,12.4575954 C15.2064583,12.9092714 14.1761135,13.3482409 13.1796091,13.7728096 C12.2116733,14.2519319 11.2767276,14.7147897 10.3790234,15.1596889 C9.91852266,15.3899319 9.46737482,15.6154311 9.02660015,15.8356782 C8.62221659,16.0721898 8.2278661,16.3032799 7.84286847,16.528779 C7.07321331,16.9792691 6.34318026,17.4070569 5.65685056,17.8082455 C4.97477216,18.2229878 4.32007212,18.5567469 3.74308583,18.9623405 C3.16763,19.359463 2.63876842,19.7238873 2.16177267,20.0530721 C1.49822994,20.5130498 0.934677749,20.9028872 0.483529906,21.2158076 C-0.224226341,21.706281 -0.145662337,21.8514747 0.657833163,21.5409262 C1.164588,21.3449063 1.79531071,21.1012791 2.5379276,20.8146189 C3.06185769,20.6124998 3.64207496,20.3888643 4.27381799,20.1454065 C4.89773862,19.8970355 5.63610422,19.7182964 6.3901146,19.4777188 C7.15194737,19.2481535 7.9627551,19.0043569 8.81709614,18.7468371 C9.24426665,18.6182467 9.68249055,18.485929 10.1314277,18.3512394 C10.5648902,18.2531447 11.0082156,18.1531864 11.4608939,18.0505173 C12.3932888,17.8389107 13.3649657,17.6186635 14.370823,17.3904536 C15.3850129,17.2210327 16.4328731,17.0461904 17.5106624,16.8662654 C18.5758678,16.6605885 19.6961701,16.5713037 20.8253151,16.4449157 C21.3888673,16.384263 21.9587114,16.3231021 22.5336571,16.2614329 C23.1065621,16.1960364 23.6961323,16.1945116 24.2821313,16.1577473 C24.8674501,16.1292846 25.4582106,16.1001442 26.0528823,16.0711733 C26.6450033,16.0369502 27.2408653,16.0095041 27.8450599,16.0286486 C29.0502181,16.0457601 30.2601378,16.0391527 31.4756692,16.0743922 C32.6876295,16.1562225 33.9089427,16.2392388 35.1353574,16.3220856 C36.3551401,16.4423744 37.5727121,16.6233159 38.7814414,16.7674931 C39.3866563,16.8291622 39.9881301,16.942166 40.5865429,17.0594052 L42.3749794,17.3943503 C43.5644928,17.5835934 44.7284985,17.9107451 45.8800903,18.1918144 C46.4535055,18.3342973 47.0248801,18.4759332 47.5937039,18.6173996 C48.1530048,18.793089 48.7097549,18.9682702 49.2629339,19.1426043 C50.3635102,19.5009295 51.456094,19.7901309 52.4932409,20.2216459 C53.5356594,20.62707 54.5612428,20.9940356 55.5461837,21.3982739 C56.5156499,21.8369045 57.4641997,22.2655393 58.3874118,22.6835006 C58.6164718,22.7866779 58.8443414,22.889347 59.0701704,22.9915078 C59.2902176,23.1080693 59.5092446,23.2241226 59.7262309,23.3393288 C60.158673,23.568047 60.584313,23.7930379 61.0033211,24.0143016 C61.8353853,24.4636058 62.6528251,24.84853 63.38898,25.3296853 C63.8443791,25.6109239 64.2933163,25.8813196 64.7269488,26.1434137 C65.4636139,26.5894989 65.6787296,27.5504541 65.2160182,28.275406 L58.5424992,38.7268105 C58.0797878,39.4514235 58.3982951,39.9564672 59.2546768,39.8548147 L94.2841897,35.6953627 C95.1410815,35.5959127 95.6155264,34.852155 95.345654,34.0363935 Z" id="Shape"></path>
            </g>
        </g>
    </g>
</svg>